<svg xmlns="http://www.w3.org/2000/svg" width="330" height="158.182" viewBox="0 0 330 158.1818181818182"><path fill="none" stroke="#000" d="M15 90h300M15 83.182v13.636M75 83.182v13.636M135 83.182v13.636M195 83.182v13.636M255 83.182v13.636M315 83.182v13.636M15 90h300M15 83.182v13.636M45 83.182v13.636M75 83.182v13.636M105 83.182v13.636M135 83.182v13.636M165 83.182v13.636M195 83.182v13.636M225 83.182v13.636M255 83.182v13.636M285 83.182v13.636M315 83.182v13.636" stroke-width="2"/><ellipse cx="45" cy="35.455" rx="4" ry="4" stroke="#000" stroke-width="2" stroke-dasharray="0"/><path stroke="#000" d="M165 62.727V8.182M195 8.182v54.545M255 62.727V8.182" stroke-width="2" stroke-dasharray="0" fill="none"/><ellipse cx="285" cy="35.455" rx="4" ry="4" stroke="#000" stroke-width="2" stroke-dasharray="0"/><path stroke="#000" d="M45 35.455h120M165 8.182h90M165 62.727h90M255 35.455h30" stroke-width="2" stroke-dasharray="0" fill="none"/></svg>
