<?xml version="1.0" encoding="UTF-8" standalone="no"?>
<svg width="800" height="500" xmlns="http://www.w3.org/2000/svg">
  <rect width="100%" height="100%" fill="white"/>
  
  <!-- Grid -->
  
    <line x1="50" y1="50" x2="750" y2="50" 
          stroke="#eee" stroke-width="1"/>
  
    <line x1="50" y1="90" x2="750" y2="90" 
          stroke="#eee" stroke-width="1"/>
  
    <line x1="50" y1="130" x2="750" y2="130" 
          stroke="#eee" stroke-width="1"/>
  
    <line x1="50" y1="170" x2="750" y2="170" 
          stroke="#eee" stroke-width="1"/>
  
    <line x1="50" y1="210" x2="750" y2="210" 
          stroke="#eee" stroke-width="1"/>
  
    <line x1="50" y1="250" x2="750" y2="250" 
          stroke="#eee" stroke-width="1"/>
  
    <line x1="50" y1="290" x2="750" y2="290" 
          stroke="#eee" stroke-width="1"/>
  
    <line x1="50" y1="330" x2="750" y2="330" 
          stroke="#eee" stroke-width="1"/>
  
    <line x1="50" y1="370" x2="750" y2="370" 
          stroke="#eee" stroke-width="1"/>
  
    <line x1="50" y1="410" x2="750" y2="410" 
          stroke="#eee" stroke-width="1"/>
  
  
  <!-- Axes -->
  <line x1="50" y1="450" x2="750" y2="450" stroke="#58595b" stroke-width="2"/>
  <line x1="50" y1="50" x2="50" y2="450" stroke="#58595b" stroke-width="2"/>
  
  <!-- Single Bars -->
  
      <rect x="100" y="254.58404484390297" width="80" height="195.41595515609703" 
            fill="#ff8200" stroke="#58595b"/>
      <text x="140" y="470" text-anchor="middle" font-family="Arial" font-size="14">
        Category A
      </text>
    
      <rect x="210" y="135.33090603242613" width="80" height="314.6690939675739" 
            fill="#ff8200" stroke="#58595b"/>
      <text x="250" y="470" text-anchor="middle" font-family="Arial" font-size="14">
        Category B
      </text>
    
      <rect x="320" y="277.09735783021887" width="80" height="172.90264216978113" 
            fill="#ff8200" stroke="#58595b"/>
      <text x="360" y="470" text-anchor="middle" font-family="Arial" font-size="14">
        Category C
      </text>
    
      <rect x="430" y="290.3248012973387" width="80" height="159.67519870266128" 
            fill="#ff8200" stroke="#58595b"/>
      <text x="470" y="470" text-anchor="middle" font-family="Arial" font-size="14">
        Category D
      </text>
    
      <rect x="540" y="375.5528045355576" width="80" height="74.44719546444244" 
            fill="#ff8200" stroke="#58595b"/>
      <text x="580" y="470" text-anchor="middle" font-family="Arial" font-size="14">
        Category E
      </text>
    
      <rect x="650" y="102.82190895641435" width="80" height="347.17809104358565" 
            fill="#ff8200" stroke="#58595b"/>
      <text x="690" y="470" text-anchor="middle" font-family="Arial" font-size="14">
        Category F
      </text>
    
  
  <!-- Labels -->
  <text x="400" y="490" text-anchor="middle" font-family="Arial" font-size="14">Categories</text>
  <text x="20" y="250" text-anchor="middle" transform="rotate(-90, 20, 250)" 
        font-family="Arial" font-size="14">Frequency</text>

</svg>