<?xml version="1.0" encoding="UTF-8" standalone="no"?>
<svg width="800" height="500" xmlns="http://www.w3.org/2000/svg">
  <rect width="100%" height="100%" fill="white"/>
  
  <!-- Pie Chart -->
  
        <path d="M 400 250
          L 550 250
          A 150 150 0 0 1 485.4106709450771 373.3086261731586
          Z"
          fill="#ff8200"
          opacity="0.4"
          stroke="#58595b"
          stroke-width="2"
        />
        <text x="559.4501566699397" y="333.52034206067214" text-anchor="middle" font-family="Arial" font-size="14">
          15%
        </text>
      
        <path d="M 400 250
          L 485.4106709450771 373.3086261731586
          A 150 150 0 0 1 262.1407094873773 309.1169689628647
          Z"
          fill="#ff8200"
          opacity="0.5"
          stroke="#58595b"
          stroke-width="2"
        />
        <text x="350.2635590539471" y="422.99215716910345" text-anchor="middle" font-family="Arial" font-size="14">
          28%
        </text>
      
        <path d="M 400 250
          L 262.1407094873773 309.1169689628647
          A 150 150 0 0 1 262.7479629366176 189.48654429011754
          Z"
          fill="#ff8200"
          opacity="0.6000000000000001"
          stroke="#58595b"
          stroke-width="2"
        />
        <text x="220.00231894692374" y="249.08631760713266" text-anchor="middle" font-family="Arial" font-size="14">
          13%
        </text>
      
        <path d="M 400 250
          L 262.7479629366176 189.48654429011754
          A 150 150 0 0 1 346.92126915094616 109.70513790072818
          Z"
          fill="#ff8200"
          opacity="0.7000000000000001"
          stroke="#58595b"
          stroke-width="2"
        />
        <text x="276.1746607230234" y="119.35817915789127" text-anchor="middle" font-family="Arial" font-size="14">
          13%
        </text>
      
        <path d="M 400 250
          L 346.92126915094616 109.70513790072818
          A 150 150 0 0 1 550 249.99999999999997
          Z"
          fill="#ff8200"
          opacity="0.8"
          stroke="#58595b"
          stroke-width="2"
        />
        <text x="502.31078666642236" y="101.90373761739357" text-anchor="middle" font-family="Arial" font-size="14">
          31%
        </text>
      

</svg>