<?xml version="1.0" encoding="UTF-8" standalone="no"?>
<svg width="800" height="500" xmlns="http://www.w3.org/2000/svg">
  <rect width="100%" height="100%" fill="white"/>
  
  <!-- Grid -->
  
    <line x1="50" y1="50" x2="750" y2="50" 
          stroke="#eee" stroke-width="1"/>
  
    <line x1="50" y1="90" x2="750" y2="90" 
          stroke="#eee" stroke-width="1"/>
  
    <line x1="50" y1="130" x2="750" y2="130" 
          stroke="#eee" stroke-width="1"/>
  
    <line x1="50" y1="170" x2="750" y2="170" 
          stroke="#eee" stroke-width="1"/>
  
    <line x1="50" y1="210" x2="750" y2="210" 
          stroke="#eee" stroke-width="1"/>
  
    <line x1="50" y1="250" x2="750" y2="250" 
          stroke="#eee" stroke-width="1"/>
  
    <line x1="50" y1="290" x2="750" y2="290" 
          stroke="#eee" stroke-width="1"/>
  
    <line x1="50" y1="330" x2="750" y2="330" 
          stroke="#eee" stroke-width="1"/>
  
    <line x1="50" y1="370" x2="750" y2="370" 
          stroke="#eee" stroke-width="1"/>
  
    <line x1="50" y1="410" x2="750" y2="410" 
          stroke="#eee" stroke-width="1"/>
  
  
  <!-- Axes -->
  <line x1="50" y1="450" x2="750" y2="450" stroke="#58595b" stroke-width="2"/>
  <line x1="50" y1="50" x2="50" y2="450" stroke="#58595b" stroke-width="2"/>
  
  <!-- Dots -->
  
      <circle cx="100" cy="450" r="5" 
              fill="#ff8200" stroke="#58595b"/>
    
      <circle cx="100" cy="420" r="5" 
              fill="#ff8200" stroke="#58595b"/>
    
      <circle cx="100" cy="390" r="5" 
              fill="#ff8200" stroke="#58595b"/>
    
      <circle cx="100" cy="360" r="5" 
              fill="#ff8200" stroke="#58595b"/>
    
      <circle cx="100" cy="330" r="5" 
              fill="#ff8200" stroke="#58595b"/>
    
      <circle cx="100" cy="300" r="5" 
              fill="#ff8200" stroke="#58595b"/>
    
      <circle cx="170" cy="450" r="5" 
              fill="#ff8200" stroke="#58595b"/>
    
      <circle cx="240" cy="450" r="5" 
              fill="#ff8200" stroke="#58595b"/>
    
      <circle cx="240" cy="420" r="5" 
              fill="#ff8200" stroke="#58595b"/>
    
      <circle cx="240" cy="390" r="5" 
              fill="#ff8200" stroke="#58595b"/>
    
      <circle cx="240" cy="360" r="5" 
              fill="#ff8200" stroke="#58595b"/>
    
      <circle cx="310" cy="450" r="5" 
              fill="#ff8200" stroke="#58595b"/>
    
      <circle cx="310" cy="420" r="5" 
              fill="#ff8200" stroke="#58595b"/>
    
      <circle cx="380" cy="450" r="5" 
              fill="#ff8200" stroke="#58595b"/>
    
      <circle cx="380" cy="420" r="5" 
              fill="#ff8200" stroke="#58595b"/>
    
      <circle cx="380" cy="390" r="5" 
              fill="#ff8200" stroke="#58595b"/>
    
      <circle cx="380" cy="360" r="5" 
              fill="#ff8200" stroke="#58595b"/>
    
      <circle cx="380" cy="330" r="5" 
              fill="#ff8200" stroke="#58595b"/>
    
      <circle cx="380" cy="300" r="5" 
              fill="#ff8200" stroke="#58595b"/>
    
      <circle cx="450" cy="450" r="5" 
              fill="#ff8200" stroke="#58595b"/>
    
      <circle cx="450" cy="420" r="5" 
              fill="#ff8200" stroke="#58595b"/>
    
      <circle cx="450" cy="390" r="5" 
              fill="#ff8200" stroke="#58595b"/>
    
      <circle cx="450" cy="360" r="5" 
              fill="#ff8200" stroke="#58595b"/>
    
      <circle cx="450" cy="330" r="5" 
              fill="#ff8200" stroke="#58595b"/>
    
      <circle cx="520" cy="450" r="5" 
              fill="#ff8200" stroke="#58595b"/>
    
      <circle cx="590" cy="450" r="5" 
              fill="#ff8200" stroke="#58595b"/>
    
      <circle cx="660" cy="450" r="5" 
              fill="#ff8200" stroke="#58595b"/>
    
      <circle cx="660" cy="420" r="5" 
              fill="#ff8200" stroke="#58595b"/>
    
      <circle cx="660" cy="390" r="5" 
              fill="#ff8200" stroke="#58595b"/>
    
      <circle cx="660" cy="360" r="5" 
              fill="#ff8200" stroke="#58595b"/>
    
      <circle cx="660" cy="330" r="5" 
              fill="#ff8200" stroke="#58595b"/>
    
      <circle cx="730" cy="450" r="5" 
              fill="#ff8200" stroke="#58595b"/>
    
      <circle cx="730" cy="420" r="5" 
              fill="#ff8200" stroke="#58595b"/>
    
      <circle cx="730" cy="390" r="5" 
              fill="#ff8200" stroke="#58595b"/>
    
  
  <!-- Labels -->
  <text x="400" y="490" text-anchor="middle" font-family="Arial" font-size="14">Values</text>
  <text x="20" y="250" text-anchor="middle" transform="rotate(-90, 20, 250)" 
        font-family="Arial" font-size="14">Count</text>

</svg>