<?xml version="1.0" encoding="UTF-8" standalone="no"?>
<svg width="800" height="500" xmlns="http://www.w3.org/2000/svg">
  <rect width="100%" height="100%" fill="white"/>
  
  <!-- Grid -->
  
    <line x1="50" y1="50" x2="750" y2="50" 
          stroke="#eee" stroke-width="1"/>
    <line x1="50" y1="50" x2="50" y2="450" 
          stroke="#eee" stroke-width="1"/>
  
    <line x1="50" y1="90" x2="750" y2="90" 
          stroke="#eee" stroke-width="1"/>
    <line x1="120" y1="50" x2="120" y2="450" 
          stroke="#eee" stroke-width="1"/>
  
    <line x1="50" y1="130" x2="750" y2="130" 
          stroke="#eee" stroke-width="1"/>
    <line x1="190" y1="50" x2="190" y2="450" 
          stroke="#eee" stroke-width="1"/>
  
    <line x1="50" y1="170" x2="750" y2="170" 
          stroke="#eee" stroke-width="1"/>
    <line x1="260" y1="50" x2="260" y2="450" 
          stroke="#eee" stroke-width="1"/>
  
    <line x1="50" y1="210" x2="750" y2="210" 
          stroke="#eee" stroke-width="1"/>
    <line x1="330" y1="50" x2="330" y2="450" 
          stroke="#eee" stroke-width="1"/>
  
    <line x1="50" y1="250" x2="750" y2="250" 
          stroke="#eee" stroke-width="1"/>
    <line x1="400" y1="50" x2="400" y2="450" 
          stroke="#eee" stroke-width="1"/>
  
    <line x1="50" y1="290" x2="750" y2="290" 
          stroke="#eee" stroke-width="1"/>
    <line x1="470" y1="50" x2="470" y2="450" 
          stroke="#eee" stroke-width="1"/>
  
    <line x1="50" y1="330" x2="750" y2="330" 
          stroke="#eee" stroke-width="1"/>
    <line x1="540" y1="50" x2="540" y2="450" 
          stroke="#eee" stroke-width="1"/>
  
    <line x1="50" y1="370" x2="750" y2="370" 
          stroke="#eee" stroke-width="1"/>
    <line x1="610" y1="50" x2="610" y2="450" 
          stroke="#eee" stroke-width="1"/>
  
    <line x1="50" y1="410" x2="750" y2="410" 
          stroke="#eee" stroke-width="1"/>
    <line x1="680" y1="50" x2="680" y2="450" 
          stroke="#eee" stroke-width="1"/>
  
  
  <!-- Axes -->
  <line x1="50" y1="450" x2="750" y2="450" stroke="#58595b" stroke-width="2"/>
  <line x1="50" y1="50" x2="50" y2="450" stroke="#58595b" stroke-width="2"/>
  
  <!-- Points -->
  <circle cx="638.4595242134563" cy="90.56147006754867" r="5" fill="#ff8200" opacity="0.6"/><circle cx="340.6511247246324" cy="289.3621007800392" r="5" fill="#ff8200" opacity="0.6"/><circle cx="220.01584035334886" cy="132.74104224388196" r="5" fill="#ff8200" opacity="0.6"/><circle cx="699.8315533409757" cy="209.4717622992306" r="5" fill="#ff8200" opacity="0.6"/><circle cx="491.31382500603445" cy="180.6295117475213" r="5" fill="#ff8200" opacity="0.6"/><circle cx="163.78924848127997" cy="436.7715571890911" r="5" fill="#ff8200" opacity="0.6"/><circle cx="539.4677760281777" cy="150.499009183552" r="5" fill="#ff8200" opacity="0.6"/><circle cx="273.8422698416964" cy="148.00290182047956" r="5" fill="#ff8200" opacity="0.6"/><circle cx="528.1887854151109" cy="367.0846770119243" r="5" fill="#ff8200" opacity="0.6"/><circle cx="617.0276917885367" cy="419.60025257807035" r="5" fill="#ff8200" opacity="0.6"/><circle cx="434.7720170535371" cy="372.96926108011263" r="5" fill="#ff8200" opacity="0.6"/><circle cx="690.9879135411028" cy="319.40882043869783" r="5" fill="#ff8200" opacity="0.6"/><circle cx="199.20039084081932" cy="153.953321187222" r="5" fill="#ff8200" opacity="0.6"/><circle cx="534.1946794124361" cy="281.6088006491297" r="5" fill="#ff8200" opacity="0.6"/><circle cx="224.4484098502312" cy="397.24142741565095" r="5" fill="#ff8200" opacity="0.6"/><circle cx="284.64983790662546" cy="204.13155978872143" r="5" fill="#ff8200" opacity="0.6"/><circle cx="364.4287359544607" cy="85.1385581975041" r="5" fill="#ff8200" opacity="0.6"/><circle cx="550.7095720013726" cy="362.0784567945351" r="5" fill="#ff8200" opacity="0.6"/><circle cx="279.06940022197216" cy="192.11865392843714" r="5" fill="#ff8200" opacity="0.6"/><circle cx="486.50693753784395" cy="234.13898040382907" r="5" fill="#ff8200" opacity="0.6"/><circle cx="80.67402648175477" cy="417.74465633382374" r="5" fill="#ff8200" opacity="0.6"/><circle cx="471.8297917812853" cy="61.75182040711434" r="5" fill="#ff8200" opacity="0.6"/><circle cx="482.87747982434763" cy="177.26412849108976" r="5" fill="#ff8200" opacity="0.6"/><circle cx="574.0668645088139" cy="387.08714369712357" r="5" fill="#ff8200" opacity="0.6"/><circle cx="274.7989345829038" cy="339.6732693667938" r="5" fill="#ff8200" opacity="0.6"/><circle cx="273.15724959338365" cy="434.5749797588515" r="5" fill="#ff8200" opacity="0.6"/><circle cx="352.70521048328817" cy="246.78044814767705" r="5" fill="#ff8200" opacity="0.6"/><circle cx="743.5732062814692" cy="409.5172214774755" r="5" fill="#ff8200" opacity="0.6"/><circle cx="586.1264334341668" cy="86.63000064560106" r="5" fill="#ff8200" opacity="0.6"/><circle cx="81.2044154729978" cy="170.14516275602477" r="5" fill="#ff8200" opacity="0.6"/><circle cx="496.65283850241013" cy="63.25531456989404" r="5" fill="#ff8200" opacity="0.6"/><circle cx="738.5689709969388" cy="208.1472116312521" r="5" fill="#ff8200" opacity="0.6"/><circle cx="338.09832846587034" cy="64.75421037106247" r="5" fill="#ff8200" opacity="0.6"/><circle cx="704.0470491268695" cy="344.2902397188984" r="5" fill="#ff8200" opacity="0.6"/><circle cx="200.7530839184515" cy="116.82450142848057" r="5" fill="#ff8200" opacity="0.6"/><circle cx="440.98420116777316" cy="321.64869124294944" r="5" fill="#ff8200" opacity="0.6"/><circle cx="394.36691292183184" cy="72.06869754746464" r="5" fill="#ff8200" opacity="0.6"/><circle cx="682.3305122176654" cy="214.74535461693165" r="5" fill="#ff8200" opacity="0.6"/><circle cx="674.0274321907743" cy="105.0681743023344" r="5" fill="#ff8200" opacity="0.6"/><circle cx="247.30804069301507" cy="128.195412249558" r="5" fill="#ff8200" opacity="0.6"/><circle cx="500.47527447773024" cy="219.64306940269714" r="5" fill="#ff8200" opacity="0.6"/><circle cx="79.76855842049844" cy="143.87639269284603" r="5" fill="#ff8200" opacity="0.6"/><circle cx="686.4127745852212" cy="413.1692296302927" r="5" fill="#ff8200" opacity="0.6"/><circle cx="186.69620341231857" cy="416.3337134026485" r="5" fill="#ff8200" opacity="0.6"/><circle cx="155.16762798657896" cy="322.93990204605814" r="5" fill="#ff8200" opacity="0.6"/><circle cx="167.9217042497724" cy="132.59626900327203" r="5" fill="#ff8200" opacity="0.6"/><circle cx="106.02614504545897" cy="283.96197760159146" r="5" fill="#ff8200" opacity="0.6"/><circle cx="597.3642227482375" cy="143.48605158372214" r="5" fill="#ff8200" opacity="0.6"/><circle cx="663.6424596865268" cy="184.60204347860537" r="5" fill="#ff8200" opacity="0.6"/><circle cx="478.8201312401349" cy="298.56603929985476" r="5" fill="#ff8200" opacity="0.6"/>
  
  <!-- Labels -->
  <text x="400" y="490" text-anchor="middle" font-family="Arial" font-size="14">Variable X (Continuous)</text>
  <text x="20" y="250" text-anchor="middle" transform="rotate(-90, 20, 250)" 
        font-family="Arial" font-size="14">Variable Y (Continuous)</text>

</svg>